# xmcd
#
# Track frame offsets:
#	150
#	16925
#	37545
#	53052
#	72435
#	89372
#	106302
#	122177
#	140530
#	157447
#	172377
#	189402
#	204035
#	218415
#	236957
#
# Disc length: 3416 seconds
#
# Revision: 1
# Processed by: cddbd v1.5.2PL0 Copyright (c) Steve Scherf et al.
# Submitted via: audiograbber 1.83.01
#
DISCID=d20d560f
DTITLE=EDIGAR MÃO BRANCA - BRIQUITEIRO - FORROZEIRO TRABALHANDO
DYEAR=1900
DGENRE=FORRÓ
TTITLE0=FORROZEIRO TRABALHANDO
TTITLE1=SÃO JOÃO É AGORA
TTITLE2=O QUERER DO QUERER
TTITLE3=BRIQUITEIRO
TTITLE4=EU VOU PRO PIAUÍ
TTITLE5=GALOPE AFLITO(PAULINHO LEITE)
TTITLE6=UM XOTE COM SAUDADE
TTITLE7=CANTAR CONQUISTA
TTITLE8=MELHOR QUE SER DR. E SER VAQUEIRO
TTITLE9=ESTOU VOLTANDO
TTITLE10=A RURÁ DE SEVERINO
TTITLE11=A FILHA DO VAQUEIRO
TTITLE12=CHEGA DE SOLIDÃO
TTITLE13=SORRIA, VOCÊ ESTÁ SENDO FILMADO
TTITLE14=ROMEIRO DE TODO ANO
EXTD=
EXTT0=
EXTT1=
EXTT2=
EXTT3=
EXTT4=
EXTT5=
EXTT6=
EXTT7=
EXTT8=
EXTT9=
EXTT10=
EXTT11=
EXTT12=
EXTT13=
EXTT14=
PLAYORDER=
